<svg xmlns="http://www.w3.org/2000/svg" width="28" height="25" viewBox="0 0 28 25" fill="#696969">
<path d="M18.254 3.97222C18.254 3.69608 18.4779 3.47222 18.754 3.47222H21.2262C21.5023 3.47222 21.7262 3.24836 21.7262 2.97222V0.5C21.7262 0.223858 21.95 0 22.2262 0H24.004C24.2801 0 24.504 0.223858 24.504 0.5V2.97222C24.504 3.24836 24.7278 3.47222 25.004 3.47222H27.4762C27.7524 3.47222 27.9762 3.69608 27.9762 3.97222V5.75C27.9762 6.02614 27.7524 6.25 27.4762 6.25H25.004C24.7278 6.25 24.504 6.47386 24.504 6.75V9.22222C24.504 9.49836 24.2801 9.72222 24.004 9.72222H22.2262C21.95 9.72222 21.7262 9.49836 21.7262 9.22222V6.75C21.7262 6.47386 21.5023 6.25 21.2262 6.25H18.754C18.4779 6.25 18.254 6.02614 18.254 5.75V3.97222ZM22.9652 24.3265C23.086 24.6531 22.8444 25 22.4963 25H18.9285C18.7149 25 18.5248 24.8643 18.4556 24.6622L16.483 18.9093C16.4137 18.7072 16.2237 18.5715 16.01 18.5715H7.10106C6.89148 18.5715 6.70415 18.7022 6.6318 18.8989L4.50806 24.6726C4.43571 24.8693 4.24837 25 4.0388 25H0.719993C0.371306 25 0.129693 24.6521 0.251485 24.3254L9.19788 0.325355C9.27081 0.129724 9.45761 0 9.66639 0H13.6195C13.8287 0 14.0158 0.130297 14.0884 0.326551L22.9652 24.3265ZM14.6023 15.3572C14.9435 15.3572 15.1845 15.0229 15.0767 14.6992L11.8973 5.15069C11.7985 4.82868 11.6925 4.31423 11.5794 3.60729C11.5761 3.58673 11.5584 3.57146 11.5375 3.57146V3.57146C11.5166 3.57146 11.4988 3.58687 11.4956 3.60757C11.3966 4.25642 11.2849 4.77077 11.1607 5.15069L8.02253 14.7011C7.91627 15.0244 8.15716 15.3572 8.49754 15.3572H14.6023Z"/>
</svg>