<svg xmlns="http://www.w3.org/2000/svg" width="334" height="151" viewBox="0 0 334 151" fill="none">
<path d="M98.0426 46.921C98.0426 45.4616 98.6023 44.1316 99.5094 43.0971C99.0269 43.0232 98.5444 42.9863 98.0426 42.9863C92.4843 42.9863 87.9489 47.4013 87.9489 52.8323C87.9489 58.2633 92.4843 62.6783 98.0426 62.6783C103.601 62.6783 108.136 58.2633 108.136 52.8323C108.136 52.4074 108.098 51.9825 108.059 51.5577C106.998 52.352 105.685 52.8323 104.238 52.8323C100.802 52.8323 98.0426 50.1907 98.0426 46.921Z" fill="white"/>
<path d="M62.9515 54.6439C62.4908 53.9666 62.0215 53.2764 61.542 52.5735C67.3166 36.0745 82.1215 27 97.6567 27C107.106 27 114.35 29.2979 120.015 33.6458C125.631 37.9555 129.743 44.316 132.896 52.5759C131.643 54.3455 130.475 56.0341 129.363 57.6397C125.216 63.6316 121.87 68.466 117.966 72.0291C113.025 76.5388 107.19 79 97.6567 79C88.1112 79 81.9428 76.5369 76.7292 72.0205C71.9563 67.8859 67.9713 62.0258 62.9515 54.6439ZM79.8641 52.6475C79.8641 62.2271 87.8582 70.0132 97.6567 70.0132C107.455 70.0132 115.449 62.2459 115.449 52.6475C115.449 43.068 107.455 35.2818 97.6567 35.2818C87.8586 35.2818 79.8641 43.0492 79.8641 52.6475Z" fill="#FFF48D" stroke="#FFF48D"/>
<path d="M146 51.3544C146 76.7512 124.426 97.7089 97.3468 97.7089C70.2677 97.7089 48.6935 76.7512 48.6935 51.3544C48.6935 25.9577 70.2677 5 97.3468 5C124.426 5 146 25.9577 146 51.3544Z" stroke="#FFDF29" stroke-width="10"/>
<path d="M58.4267 108.504C39.8819 128.592 45.399 163.3 16.0427 137.428C-13.3137 111.556 22.2705 113.696 40.8153 93.6089C59.3601 73.5216 50.5088 79.0053 61.442 88.2525C72.3752 97.4998 76.9715 88.4172 58.4267 108.504Z" fill="#FFDF29"/>
<path d="M63.5284 142V112.909H75.1761C77.3163 112.909 79.1013 113.226 80.5312 113.861C81.9612 114.495 83.036 115.376 83.7557 116.503C84.4754 117.62 84.8352 118.908 84.8352 120.366C84.8352 121.503 84.608 122.502 84.1534 123.364C83.6989 124.216 83.0739 124.917 82.2784 125.466C81.4924 126.006 80.5928 126.389 79.5795 126.616V126.901C80.6875 126.948 81.7244 127.26 82.6903 127.838C83.6657 128.416 84.4564 129.225 85.0625 130.267C85.6686 131.299 85.9716 132.53 85.9716 133.96C85.9716 135.504 85.5881 136.882 84.821 138.094C84.0634 139.296 82.9413 140.248 81.4545 140.949C79.9678 141.65 78.1354 142 75.9574 142H63.5284ZM69.679 136.972H74.6932C76.4072 136.972 77.6572 136.645 78.4432 135.991C79.2292 135.329 79.6222 134.448 79.6222 133.349C79.6222 132.545 79.428 131.834 79.0398 131.219C78.6515 130.603 78.0975 130.12 77.3778 129.77C76.6676 129.42 75.8201 129.244 74.8352 129.244H69.679V136.972ZM69.679 125.082H74.2386C75.0814 125.082 75.8295 124.936 76.483 124.642C77.1458 124.339 77.6667 123.913 78.0455 123.364C78.4337 122.814 78.6278 122.156 78.6278 121.389C78.6278 120.338 78.2538 119.491 77.5057 118.847C76.767 118.203 75.7159 117.881 74.3523 117.881H69.679V125.082ZM89.8601 142V120.182H95.9112V142H89.8601ZM92.8999 117.369C92.0002 117.369 91.2285 117.071 90.5845 116.474C89.95 115.868 89.6328 115.144 89.6328 114.301C89.6328 113.468 89.95 112.753 90.5845 112.156C91.2285 111.55 92.0002 111.247 92.8999 111.247C93.7995 111.247 94.5665 111.55 95.201 112.156C95.8449 112.753 96.1669 113.468 96.1669 114.301C96.1669 115.144 95.8449 115.868 95.201 116.474C94.5665 117.071 93.7995 117.369 92.8999 117.369ZM110.616 142.426C108.41 142.426 106.502 141.957 104.892 141.02C103.292 140.073 102.056 138.757 101.185 137.071C100.313 135.376 99.8778 133.411 99.8778 131.176C99.8778 128.922 100.313 126.953 101.185 125.267C102.056 123.572 103.292 122.256 104.892 121.318C106.502 120.371 108.41 119.898 110.616 119.898C112.823 119.898 114.726 120.371 116.327 121.318C117.937 122.256 119.177 123.572 120.048 125.267C120.92 126.953 121.355 128.922 121.355 131.176C121.355 133.411 120.92 135.376 120.048 137.071C119.177 138.757 117.937 140.073 116.327 141.02C114.726 141.957 112.823 142.426 110.616 142.426ZM110.645 137.739C111.649 137.739 112.487 137.455 113.159 136.886C113.831 136.309 114.338 135.523 114.679 134.528C115.029 133.534 115.205 132.402 115.205 131.134C115.205 129.865 115.029 128.733 114.679 127.739C114.338 126.744 113.831 125.958 113.159 125.381C112.487 124.803 111.649 124.514 110.645 124.514C109.632 124.514 108.779 124.803 108.088 125.381C107.406 125.958 106.89 126.744 106.54 127.739C106.199 128.733 106.028 129.865 106.028 131.134C106.028 132.402 106.199 133.534 106.54 134.528C106.89 135.523 107.406 136.309 108.088 136.886C108.779 137.455 109.632 137.739 110.645 137.739ZM128.653 130.188V142H125.636V122.364H128.551V125.432H128.807C129.267 124.435 129.966 123.634 130.903 123.028C131.841 122.415 133.051 122.108 134.534 122.108C135.864 122.108 137.027 122.381 138.024 122.926C139.021 123.463 139.797 124.281 140.351 125.381C140.905 126.472 141.182 127.852 141.182 129.523V142H138.165V129.727C138.165 128.185 137.764 126.983 136.963 126.122C136.162 125.253 135.063 124.818 133.665 124.818C132.702 124.818 131.841 125.027 131.082 125.445C130.332 125.862 129.74 126.472 129.305 127.273C128.871 128.074 128.653 129.045 128.653 130.188ZM146.695 142V122.364H149.712V142H146.695ZM148.229 119.091C147.641 119.091 147.134 118.891 146.708 118.49C146.29 118.089 146.081 117.608 146.081 117.045C146.081 116.483 146.29 116.001 146.708 115.601C147.134 115.2 147.641 115 148.229 115C148.817 115 149.32 115.2 149.738 115.601C150.164 116.001 150.377 116.483 150.377 117.045C150.377 117.608 150.164 118.089 149.738 118.49C149.32 118.891 148.817 119.091 148.229 119.091ZM163.215 142.409C161.374 142.409 159.789 141.974 158.46 141.105C157.13 140.236 156.107 139.038 155.391 137.513C154.675 135.987 154.317 134.244 154.317 132.284C154.317 130.29 154.684 128.53 155.417 127.004C156.158 125.47 157.19 124.273 158.511 123.412C159.84 122.543 161.391 122.108 163.164 122.108C164.545 122.108 165.789 122.364 166.897 122.875C168.005 123.386 168.913 124.102 169.62 125.023C170.327 125.943 170.766 127.017 170.937 128.244H167.92C167.69 127.349 167.178 126.557 166.386 125.866C165.602 125.168 164.545 124.818 163.215 124.818C162.039 124.818 161.008 125.125 160.121 125.739C159.244 126.344 158.558 127.2 158.063 128.308C157.577 129.408 157.335 130.699 157.335 132.182C157.335 133.699 157.573 135.02 158.05 136.145C158.536 137.27 159.218 138.143 160.096 138.766C160.982 139.388 162.022 139.699 163.215 139.699C163.999 139.699 164.711 139.562 165.35 139.29C165.989 139.017 166.531 138.625 166.974 138.114C167.417 137.602 167.732 136.989 167.92 136.273H170.937C170.766 137.432 170.344 138.476 169.671 139.405C169.006 140.325 168.124 141.058 167.025 141.604C165.934 142.141 164.664 142.409 163.215 142.409ZM186.364 142V112.909H197.842C200.039 112.909 201.914 113.302 203.467 114.088C205.029 114.865 206.218 115.968 207.032 117.398C207.856 118.818 208.268 120.49 208.268 122.412C208.268 124.344 207.851 126.006 207.018 127.398C206.184 128.78 204.977 129.841 203.396 130.58C201.824 131.318 199.92 131.688 197.685 131.688H190.001V126.744H196.691C197.865 126.744 198.841 126.583 199.617 126.261C200.394 125.939 200.971 125.456 201.35 124.812C201.738 124.169 201.933 123.368 201.933 122.412C201.933 121.446 201.738 120.632 201.35 119.969C200.971 119.306 200.389 118.804 199.603 118.463C198.826 118.113 197.846 117.938 196.663 117.938H192.515V142H186.364ZM202.075 128.761L209.305 142H202.515L195.441 128.761H202.075ZM222.092 142.426C219.848 142.426 217.916 141.972 216.297 141.062C214.687 140.144 213.446 138.847 212.575 137.17C211.704 135.485 211.268 133.491 211.268 131.19C211.268 128.946 211.704 126.976 212.575 125.281C213.446 123.586 214.673 122.265 216.254 121.318C217.845 120.371 219.711 119.898 221.851 119.898C223.29 119.898 224.63 120.13 225.871 120.594C227.121 121.048 228.21 121.735 229.138 122.653C230.075 123.572 230.804 124.727 231.325 126.119C231.846 127.502 232.107 129.121 232.107 130.977V132.639H213.683V128.889H226.411C226.411 128.018 226.221 127.246 225.842 126.574C225.464 125.902 224.938 125.376 224.266 124.997C223.603 124.609 222.831 124.415 221.95 124.415C221.032 124.415 220.217 124.628 219.507 125.054C218.806 125.471 218.257 126.034 217.859 126.744C217.462 127.445 217.258 128.226 217.249 129.088V132.653C217.249 133.733 217.447 134.666 217.845 135.452C218.252 136.238 218.825 136.844 219.564 137.27C220.303 137.696 221.179 137.909 222.192 137.909C222.864 137.909 223.48 137.814 224.038 137.625C224.597 137.436 225.075 137.152 225.473 136.773C225.871 136.394 226.174 135.93 226.382 135.381L231.979 135.75C231.695 137.095 231.112 138.269 230.232 139.273C229.36 140.267 228.233 141.044 226.851 141.602C225.478 142.152 223.892 142.426 222.092 142.426ZM242.277 142.412C240.885 142.412 239.644 142.17 238.555 141.688C237.466 141.195 236.605 140.471 235.97 139.514C235.345 138.548 235.033 137.346 235.033 135.906C235.033 134.694 235.255 133.676 235.7 132.852C236.145 132.028 236.751 131.366 237.518 130.864C238.286 130.362 239.157 129.983 240.132 129.727C241.117 129.472 242.149 129.292 243.229 129.188C244.498 129.055 245.52 128.932 246.297 128.818C247.073 128.695 247.637 128.515 247.987 128.278C248.338 128.042 248.513 127.691 248.513 127.227V127.142C248.513 126.242 248.229 125.546 247.661 125.054C247.102 124.562 246.306 124.315 245.274 124.315C244.185 124.315 243.319 124.557 242.675 125.04C242.031 125.513 241.605 126.11 241.396 126.83L235.8 126.375C236.084 125.049 236.643 123.903 237.476 122.938C238.309 121.962 239.384 121.214 240.7 120.693C242.026 120.163 243.56 119.898 245.303 119.898C246.515 119.898 247.675 120.04 248.783 120.324C249.9 120.608 250.89 121.048 251.751 121.645C252.623 122.241 253.309 123.009 253.811 123.946C254.313 124.874 254.564 125.987 254.564 127.284V142H248.825V138.974H248.655C248.304 139.656 247.836 140.258 247.249 140.778C246.661 141.29 245.956 141.692 245.132 141.986C244.308 142.27 243.357 142.412 242.277 142.412ZM244.01 138.236C244.9 138.236 245.686 138.061 246.368 137.71C247.05 137.35 247.585 136.867 247.973 136.261C248.361 135.655 248.555 134.969 248.555 134.202V131.886C248.366 132.009 248.106 132.123 247.774 132.227C247.452 132.322 247.088 132.412 246.68 132.497C246.273 132.573 245.866 132.644 245.459 132.71C245.052 132.767 244.682 132.819 244.351 132.866C243.641 132.971 243.02 133.136 242.49 133.364C241.96 133.591 241.548 133.899 241.254 134.287C240.961 134.666 240.814 135.139 240.814 135.707C240.814 136.531 241.112 137.161 241.709 137.597C242.315 138.023 243.082 138.236 244.01 138.236ZM267.298 142.355C265.641 142.355 264.14 141.929 262.795 141.077C261.46 140.215 260.4 138.951 259.614 137.284C258.837 135.608 258.449 133.553 258.449 131.119C258.449 128.619 258.851 126.541 259.656 124.884C260.461 123.217 261.531 121.972 262.866 121.148C264.211 120.314 265.684 119.898 267.284 119.898C268.506 119.898 269.524 120.106 270.338 120.523C271.162 120.93 271.825 121.441 272.327 122.057C272.838 122.663 273.226 123.259 273.491 123.847H273.676V112.909H279.713V142H273.747V138.506H273.491C273.207 139.112 272.805 139.713 272.284 140.31C271.773 140.897 271.105 141.384 270.281 141.773C269.467 142.161 268.473 142.355 267.298 142.355ZM269.216 137.54C270.191 137.54 271.015 137.275 271.688 136.744C272.369 136.205 272.89 135.452 273.25 134.486C273.619 133.52 273.804 132.388 273.804 131.091C273.804 129.794 273.624 128.667 273.264 127.71C272.904 126.754 272.384 126.015 271.702 125.494C271.02 124.973 270.191 124.713 269.216 124.713C268.222 124.713 267.384 124.983 266.702 125.523C266.02 126.062 265.504 126.811 265.153 127.767C264.803 128.723 264.628 129.831 264.628 131.091C264.628 132.36 264.803 133.482 265.153 134.457C265.513 135.423 266.029 136.181 266.702 136.73C267.384 137.27 268.222 137.54 269.216 137.54ZM285.035 142V122.364H288.052V142H285.035ZM286.569 119.091C285.981 119.091 285.474 118.891 285.048 118.49C284.63 118.089 284.421 117.608 284.421 117.045C284.421 116.483 284.63 116.001 285.048 115.601C285.474 115.2 285.981 115 286.569 115C287.157 115 287.66 115.2 288.077 115.601C288.504 116.001 288.717 116.483 288.717 117.045C288.717 117.608 288.504 118.089 288.077 118.49C287.66 118.891 287.157 119.091 286.569 119.091ZM296.595 130.188V142H293.578V122.364H296.493V125.432H296.748C297.208 124.435 297.907 123.634 298.845 123.028C299.782 122.415 300.993 122.108 302.475 122.108C303.805 122.108 304.968 122.381 305.966 122.926C306.963 123.463 307.738 124.281 308.292 125.381C308.846 126.472 309.123 127.852 309.123 129.523V142H306.106V129.727C306.106 128.185 305.706 126.983 304.904 126.122C304.103 125.253 303.004 124.818 301.606 124.818C300.643 124.818 299.782 125.027 299.024 125.445C298.274 125.862 297.681 126.472 297.247 127.273C296.812 128.074 296.595 129.045 296.595 130.188ZM322.562 149.773C321.105 149.773 319.852 149.585 318.804 149.21C317.756 148.844 316.882 148.358 316.183 147.753C315.493 147.156 314.943 146.517 314.534 145.835L316.938 144.148C317.21 144.506 317.555 144.915 317.973 145.375C318.391 145.844 318.962 146.249 319.686 146.589C320.419 146.939 321.378 147.114 322.562 147.114C324.148 147.114 325.456 146.73 326.487 145.963C327.518 145.196 328.034 143.994 328.034 142.358V138.369H327.778C327.557 138.727 327.241 139.17 326.832 139.699C326.432 140.219 325.852 140.683 325.094 141.092C324.344 141.493 323.33 141.693 322.051 141.693C320.466 141.693 319.043 141.318 317.781 140.568C316.528 139.818 315.536 138.727 314.803 137.295C314.078 135.864 313.716 134.125 313.716 132.08C313.716 130.068 314.07 128.317 314.777 126.825C315.484 125.325 316.469 124.166 317.73 123.348C318.991 122.521 320.449 122.108 322.102 122.108C323.381 122.108 324.395 122.321 325.145 122.747C325.903 123.165 326.483 123.642 326.884 124.179C327.293 124.707 327.608 125.142 327.83 125.483H328.136V122.364H331.051V142.562C331.051 144.25 330.668 145.622 329.901 146.679C329.142 147.744 328.119 148.524 326.832 149.018C325.554 149.521 324.131 149.773 322.562 149.773ZM322.46 138.983C323.67 138.983 324.693 138.706 325.528 138.152C326.364 137.598 326.999 136.801 327.433 135.761C327.868 134.722 328.085 133.477 328.085 132.028C328.085 130.614 327.872 129.365 327.446 128.283C327.02 127.2 326.389 126.352 325.554 125.739C324.719 125.125 323.688 124.818 322.46 124.818C321.182 124.818 320.116 125.142 319.264 125.79C318.42 126.437 317.786 127.307 317.359 128.398C316.942 129.489 316.733 130.699 316.733 132.028C316.733 133.392 316.946 134.598 317.372 135.646C317.807 136.686 318.446 137.504 319.29 138.101C320.142 138.689 321.199 138.983 322.46 138.983Z" fill="#FFDF29"/>
</svg>