<svg xmlns="http://www.w3.org/2000/svg" width="25" height="25" viewBox="0 0 25 25" fill="none">
    <g clip-path="url(#clip0_12_21)">
        <path d="M14.0625 21.875C15.9167 21.875 17.7293 21.3252 19.271 20.295C20.8127 19.2649 22.0143 17.8007 22.7239 16.0877C23.4334 14.3746 23.6191 12.4896 23.2574 10.671C22.8956 8.85246 22.0027 7.182 20.6916 5.87088C19.3805 4.55976 17.71 3.66688 15.8915 3.30514C14.0729 2.94341 12.1879 3.12906 10.4748 3.83863C8.76179 4.54821 7.29761 5.74982 6.26747 7.29153C5.23733 8.83324 4.6875 10.6458 4.6875 12.5V17.3438L1.875 14.5313L0.78125 15.625L5.46875 20.3125L10.1562 15.625L9.0625 14.5313L6.25 17.3438V12.5C6.25 10.9548 6.70819 9.44437 7.56664 8.15961C8.42509 6.87485 9.64524 5.87351 11.0728 5.2822C12.5003 4.69089 14.0712 4.53617 15.5866 4.83762C17.1021 5.13907 18.4942 5.88313 19.5868 6.97573C20.6794 8.06833 21.4234 9.46038 21.7249 10.9759C22.0263 12.4913 21.8716 14.0622 21.2803 15.4897C20.689 16.9173 19.6877 18.1374 18.4029 18.9959C17.1181 19.8543 15.6077 20.3125 14.0625 20.3125V21.875Z" fill="black"/>
    </g>
    <defs>
        <clipPath id="clip0_12_21">
            <rect width="25" height="25" fill="white"/>
        </clipPath>
    </defs>
</svg>